#!OML:ASF F:\VICON\USERDATA\INSTALL\rory3\rory3.ASF
:FULLY-SPECIFIED
:DEGREES
526
root -0.498226 15.9597 33.0825 0.562433 6.42526 1.90558
lowerback 12.7896 0.213023 -6.39807
upperback -5.57923 -0.76776 1.0059
thorax -13.3463 0.259248 4.92645
lowerneck -11.1252 -6.10122 -3.66774
upperneck 21.9037 -8.33789 2.37364
head 8.94235 -3.97962 0.487772
rclavicle -9.24349e-015 9.93923e-016
rhumerus -36.3803 -5.46202 -83.5463
rradius 27.3492
rwrist 7.02371
rhand -11.5401 20.4903
rfingers 7.12502
rthumb 14.5001 -8.983
lclavicle -9.24349e-015 9.93923e-016
lhumerus -43.4372 10.1134 80.0514
lradius 15.3439
lwrist -10.5641
lhand -4.8284 18.9392
lfingers 7.12502
lthumb 20.9583 47.8269
rfemur -21.0528 13.5188 22.7421
rtibia 34.3753
rfoot -14.5304 -11.7891
rtoes 38.3483
lfemur -12.8448 -1.22166 -21.3751
ltibia 66.5636
lfoot 11.1462 2.11891
ltoes 8.47685
527
root -0.509273 15.9644 33.192 0.567858 6.35758 1.95464
lowerback 12.7535 0.288931 -6.49454
upperback -5.5355 -0.683061 0.972798
thorax -13.2856 0.301789 4.92261
lowerneck -10.6865 -6.06178 -3.9261
upperneck 21.3592 -8.35215 2.94118
head 8.71342 -3.96084 0.73901
rclavicle -1.09332e-014 -8.94531e-015
rhumerus -35.9972 -4.99786 -83.6964
rradius 28.083
rwrist 7.20051
rhand -11.6614 20.2517
rfingers 7.12502
rthumb 14.3832 -9.22997
lclavicle -1.09332e-014 -8.94531e-015
lhumerus -43.503 9.65725 80.3848
lradius 15.5997
lwrist -10.3223
lhand -4.75697 19.0505
lfingers 7.12502
lthumb 21.0269 47.9306
rfemur -20.5035 13.529 22.8976
rtibia 34.1998
rfoot -14.7595 -11.6069
rtoes 38.4776
lfemur -14.2282 -0.927333 -21.4365
ltibia 67.8405
lfoot 9.56827 2.69484
ltoes 12.9101
528
root -0.524528 15.9643 33.3002 0.458361 6.26819 1.79024
lowerback 12.8727 0.404432 -6.39422
upperback -5.51212 -0.516439 0.971408
thorax -13.3539 0.373244 4.82642
lowerneck -10.4019 -6.07031 -3.9919
upperneck 21.0719 -8.40761 3.20859
head 8.58077 -3.9727 0.845017
rclavicle 1.14301e-015 -6.16232e-015
rhumerus -35.6829 -4.53942 -83.915
rradius 28.756
rwrist 6.96003
rhand -11.8489 20.2856
rfingers 7.12502
rthumb 14.2026 -9.2088
lclavicle 1.14301e-015 -6.16232e-015
lhumerus -43.7234 8.82483 80.925
lradius 16.039
lwrist -9.54631
lhand -4.66814 19.0539
lfingers 7.12502
lthumb 21.1122 47.9245
rfemur -19.8269 13.652 23.3243
rtibia 34.0079
rfoot -15.1607 -11.462
rtoes 38.9932
lfemur -15.4972 -0.450361 -21.2319
ltibia 68.9622
lfoot 8.43574 2.66027
ltoes 12.1332
529
root -0.543537 15.9687 33.4141 0.299605 6.09037 1.52057
lowerback 12.9315 0.552146 -6.27091
upperback -5.43668 -0.287749 1.03675
thorax -13.3315 0.470627 4.77475
lowerneck -10.5796 -6.16865 -3.98404
upperneck 21.2688 -8.53142 3.12976
head 8.68142 -4.03287 0.795265
rclavicle -4.06266e-015 -1.19271e-015
rhumerus -35.3306 -3.93206 -84.1906
rradius 29.3551
rwrist 6.43235
rhand -12.0394 20.7153
rfingers 7.12502
rthumb 14.019 -8.79193
lclavicle -4.06266e-015 -1.19271e-015
lhumerus -43.8026 8.48547 81.1942
lradius 16.2198
lwrist -9.20876
lhand -4.66208 18.9462
lfingers 7.12502
lthumb 21.1181 47.8162
rfemur -19.0798 13.9051 23.904
rtibia 33.7779
rfoot -15.6788 -11.3987
rtoes 39.4939
lfemur -16.7051 0.176167 -20.8606
ltibia 69.9306
lfoot 7.50781 2.26321
ltoes 7.58662
530
root -0.553123 15.9826 33.5323 0.292318 6.03025 1.68567
lowerback 12.8943 0.669919 -6.44255
upperback -5.44022 -0.168665 0.949666
thorax -13.3317 0.53633 4.74552
lowerneck -10.7083 -6.26894 -3.94875
upperneck 21.5411 -8.65736 3.00097
head 8.7954 -4.09693 0.724467
rclavicle 1.04113e-014 7.55382e-015
rhumerus -35.1538 -3.51352 -84.3108
rradius 30.0978
rwrist 6.22527
rhand -11.9042 21.0748
rfingers 7.12502
rthumb 14.1493 -8.42342
lclavicle 1.04113e-014 7.55382e-015
lhumerus -43.9656 7.93863 81.5563
lradius 16.4823
lwrist -8.49421
lhand -4.5698 18.8225
lfingers 7.12502
lthumb 21.2067 47.6825
rfemur -18.4045 13.7874 23.9346
rtibia 33.5421
rfoot -15.9927 -11.1849
rtoes 39.5193
lfemur -17.9234 0.467453 -21.1071
ltibia 70.6056
lfoot 6.52441 2.15201
ltoes 2.98791
531
root -0.555568 15.9933 33.6496 0.292413 6.03796 2.01019
lowerback 12.9879 0.753572 -6.63759
upperback -5.52494 -0.123036 0.775881
thorax -13.4981 0.573148 4.65223
lowerneck -10.3111 -6.26956 -4.04512
upperneck 21.3102 -8.70098 3.25983
head 8.66214 -4.10813 0.837532
rclavicle 1.84746e-014 2.18663e-014
rhumerus -35.1266 -3.67621 -84.1324
rradius 31.1326
rwrist 7.20001
rhand -10.9889 20.6244
rfingers 7.12502
rthumb 15.0312 -8.80994
lclavicle 1.84746e-014 2.18663e-014
lhumerus -44.2846 7.22454 81.9679
lradius 16.8325
lwrist -7.48844
lhand -4.55526 18.8675
lfingers 7.12502
lthumb 21.2207 47.7259
rfemur -17.6982 13.4814 23.7655
rtibia 33.3262
rfoot -16.2194 -10.8906
rtoes 39.3744
lfemur -19.0023 0.60057 -21.6352
ltibia 70.9859
lfoot 5.4501 2.34708
ltoes 2.01735
532
root -0.566474 15.9983 33.7547 0.241268 5.93819 2.01548
lowerback 13.2482 0.849249 -6.68104
upperback -5.60714 -0.0301238 0.730161
thorax -13.7694 0.630298 4.60617
lowerneck -9.83545 -6.20322 -4.11729
upperneck 20.9827 -8.65966 3.55024
head 8.47907 -4.07744 0.970005
rclavicle -2.88238e-015 1.08338e-014
rhumerus -34.9785 -3.36982 -84.1351
rradius 32.1049
rwrist 7.92487
rhand -10.2422 19.9492
rfingers 7.12502
rthumb 15.7504 -9.42995
lclavicle -2.88238e-015 1.08338e-014
lhumerus -44.5799 7.0217 82.0285
lradius 17.1237
lwrist -6.99663
lhand -4.46869 18.7583
lfingers 7.12502
lthumb 21.3038 47.6073
rfemur -17.0616 13.572 23.979
rtibia 33.1242
rfoot -16.5879 -10.8204
rtoes 39.4432
lfemur -20.1214 0.906025 -21.6961
ltibia 71.2629
lfoot 4.45153 2.63591
ltoes 7.18977
